{"nbformat":4,"nbformat_minor":0,"metadata":{"colab":{"name":"get_movie_clips_new.ipynb","provenance":[],"collapsed_sections":[],"authorship_tag":"ABX9TyPO/0sOB9Nw/KX/kDesIe7X"},"kernelspec":{"name":"python3","display_name":"Python 3"}},"cells":[{"cell_type":"code","metadata":{"id":"rc1g1pm2K_s_","colab_type":"code","outputId":"6353e605-0cb4-4d21-f5da-802a87999f98","executionInfo":{"status":"ok","timestamp":1584999568452,"user_tz":300,"elapsed":18761,"user":{"displayName":"Yiran Huang","photoUrl":"","userId":"05736232613090018980"}},"colab":{"base_uri":"https://localhost:8080/","height":122}},"source":["from google.colab import drive\n","drive.mount(\"/content/drive/\", force_remount=True)"],"execution_count":5,"outputs":[{"output_type":"stream","text":["Go to this URL in a browser: https://accounts.google.com/o/oauth2/auth?client_id=947318989803-6bn6qk8qdgf4n4g3pfee6491hc0brc4i.apps.googleusercontent.com&redirect_uri=urn%3aietf%3awg%3aoauth%3a2.0%3aoob&response_type=code&scope=email%20https%3a%2f%2fwww.googleapis.com%2fauth%2fdocs.test%20https%3a%2f%2fwww.googleapis.com%2fauth%2fdrive%20https%3a%2f%2fwww.googleapis.com%2fauth%2fdrive.photos.readonly%20https%3a%2f%2fwww.googleapis.com%2fauth%2fpeopleapi.readonly\n","\n","Enter your authorization code:\n","··········\n","Mounted at /content/drive/\n"],"name":"stdout"}]},{"cell_type":"code","metadata":{"id":"mAbYQAyVK3y6","colab_type":"code","colab":{}},"source":["from pydrive.auth import GoogleAuth\n","from pydrive.drive import GoogleDrive\n","from google.colab import auth\n","from oauth2client.client import GoogleCredentials\n","auth.authenticate_user()\n","gauth = GoogleAuth()\n","gauth.credentials = GoogleCredentials.get_application_default()\n","drive = GoogleDrive(gauth)"],"execution_count":0,"outputs":[]},{"cell_type":"code","metadata":{"id":"ulpQ2UwnLHnE","colab_type":"code","outputId":"3d16a6c4-0969-4f22-dc44-3fb8139b3efa","executionInfo":{"status":"ok","timestamp":1584999576552,"user_tz":300,"elapsed":3297,"user":{"displayName":"Yiran Huang","photoUrl":"","userId":"05736232613090018980"}},"colab":{"base_uri":"https://localhost:8080/","height":34}},"source":["!ls \"/content/drive/My Drive/636/data/raw_video_new\""],"execution_count":6,"outputs":[{"output_type":"stream","text":["0.mp4  1.mp4  2.mp4  3.mp4  4.mp4  5.mp4\n"],"name":"stdout"}]},{"cell_type":"markdown","metadata":{"id":"YOABnx_tg0oE","colab_type":"text"},"source":["Generate timestamps from frames of positive data\n","\n"]},{"cell_type":"code","metadata":{"id":"t25uRVt1iStq","colab_type":"code","colab":{}},"source":["PATH = \"/content/drive/My Drive/636/data/raw_video_new/\""],"execution_count":0,"outputs":[]},{"cell_type":"code","metadata":{"id":"k6myYUZCgFMs","colab_type":"code","colab":{}},"source":["def upload(name):\n","  uploaded = drive.CreateFile({'title': name})\n","  uploaded.SetContentFile(name)\n","  uploaded.Upload()\n","  print('Uploaded file with ID {}'.format(uploaded.get('id')))"],"execution_count":0,"outputs":[]},{"cell_type":"markdown","metadata":{"id":"VZMx2C6FldDG","colab_type":"text"},"source":["Split video into several clips"]},{"cell_type":"code","metadata":{"id":"ZoURDqWQXpxn","colab_type":"code","colab":{"base_uri":"https://localhost:8080/","height":1000},"outputId":"c7aa09d2-9a59-43dc-cc7c-b473d6cd9be9","executionInfo":{"status":"ok","timestamp":1585000369610,"user_tz":300,"elapsed":149934,"user":{"displayName":"Yiran Huang","photoUrl":"","userId":"05736232613090018980"}}},"source":["!ffmpeg -i ./drive/My\\ Drive/636/data/raw_video_new/1.mp4 -ss 00:01:35 -t 15 sample_1.mp4\n","!ffmpeg -i ./drive/My\\ Drive/636/data/raw_video_new/2.mp4 -ss 00:07:00 -t 15 sample_2.mp4\n","!ffmpeg -i ./drive/My\\ Drive/636/data/raw_video_new/2.mp4 -ss 00:01:20 -t 15 sample_3.mp4\n","!ffmpeg -i ./drive/My\\ Drive/636/data/raw_video_new/3.mp4 -ss 00:00:30 -t 15 sample_4.mp4\n","!ffmpeg -i ./drive/My\\ Drive/636/data/raw_video_new/4.mp4 -ss 00:02:00 -t 15 sample_5.mp4"],"execution_count":11,"outputs":[{"output_type":"stream","text":["ffmpeg version 3.4.6-0ubuntu0.18.04.1 Copyright (c) 2000-2019 the FFmpeg developers\n","  built with gcc 7 (Ubuntu 7.3.0-16ubuntu3)\n","  configuration: --prefix=/usr --extra-version=0ubuntu0.18.04.1 --toolchain=hardened --libdir=/usr/lib/x86_64-linux-gnu --incdir=/usr/include/x86_64-linux-gnu --enable-gpl --disable-stripping --enable-avresample --enable-avisynth --enable-gnutls --enable-ladspa --enable-libass --enable-libbluray --enable-libbs2b --enable-libcaca --enable-libcdio --enable-libflite --enable-libfontconfig --enable-libfreetype --enable-libfribidi --enable-libgme --enable-libgsm --enable-libmp3lame --enable-libmysofa --enable-libopenjpeg --enable-libopenmpt --enable-libopus --enable-libpulse --enable-librubberband --enable-librsvg --enable-libshine --enable-libsnappy --enable-libsoxr --enable-libspeex --enable-libssh --enable-libtheora --enable-libtwolame --enable-libvorbis --enable-libvpx --enable-libwavpack --enable-libwebp --enable-libx265 --enable-libxml2 --enable-libxvid --enable-libzmq --enable-libzvbi --enable-omx --enable-openal --enable-opengl --enable-sdl2 --enable-libdc1394 --enable-libdrm --enable-libiec61883 --enable-chromaprint --enable-frei0r --enable-libopencv --enable-libx264 --enable-shared\n","  libavutil      55. 78.100 / 55. 78.100\n","  libavcodec     57.107.100 / 57.107.100\n","  libavformat    57. 83.100 / 57. 83.100\n","  libavdevice    57. 10.100 / 57. 10.100\n","  libavfilter     6.107.100 /  6.107.100\n","  libavresample   3.  7.  0 /  3.  7.  0\n","  libswscale      4.  8.100 /  4.  8.100\n","  libswresample   2.  9.100 /  2.  9.100\n","  libpostproc    54.  7.100 / 54.  7.100\n","Input #0, mov,mp4,m4a,3gp,3g2,mj2, from './drive/My Drive/636/data/raw_video_new/1.mp4':\n","  Metadata:\n","    major_brand     : mp42\n","    minor_version   : 0\n","    compatible_brands: isommp42\n","    creation_time   : 2019-03-25T04:24:52.000000Z\n","    encoder         : Google\n","  Duration: 00:02:26.15, start: 0.000000, bitrate: 914 kb/s\n","    Stream #0:0(und): Video: h264 (High) (avc1 / 0x31637661), yuv420p(tv, bt709), 1280x534 [SAR 1:1 DAR 640:267], 782 kb/s, 23.98 fps, 23.98 tbr, 24k tbn, 47.95 tbc (default)\n","    Metadata:\n","      creation_time   : 2019-03-25T04:24:52.000000Z\n","      handler_name    : ISO Media file produced by Google Inc. Created on: 03/24/2019.\n","    Stream #0:1(und): Audio: aac (LC) (mp4a / 0x6134706D), 44100 Hz, stereo, fltp, 128 kb/s (default)\n","    Metadata:\n","      creation_time   : 2019-03-25T04:24:52.000000Z\n","      handler_name    : ISO Media file produced by Google Inc. Created on: 03/24/2019.\n","File 'sample_1.mp4' already exists. Overwrite ? [y/N] y\n","Stream mapping:\n","  Stream #0:0 -> #0:0 (h264 (native) -> h264 (libx264))\n","  Stream #0:1 -> #0:1 (aac (native) -> aac (native))\n","Press [q] to stop, [?] for help\n","\u001b[1;36m[libx264 @ 0x55613b2ae800] \u001b[0musing SAR=1/1\n","\u001b[1;36m[libx264 @ 0x55613b2ae800] \u001b[0musing cpu capabilities: MMX2 SSE2Fast SSSE3 SSE4.2 AVX FMA3 BMI2 AVX2\n","\u001b[1;36m[libx264 @ 0x55613b2ae800] \u001b[0mprofile High, level 3.1\n","\u001b[1;36m[libx264 @ 0x55613b2ae800] \u001b[0m264 - core 152 r2854 e9a5903 - H.264/MPEG-4 AVC codec - Copyleft 2003-2017 - http://www.videolan.org/x264.html - options: cabac=1 ref=3 deblock=1:0:0 analyse=0x3:0x113 me=hex subme=7 psy=1 psy_rd=1.00:0.00 mixed_ref=1 me_range=16 chroma_me=1 trellis=1 8x8dct=1 cqm=0 deadzone=21,11 fast_pskip=1 chroma_qp_offset=-2 threads=3 lookahead_threads=1 sliced_threads=0 nr=0 decimate=1 interlaced=0 bluray_compat=0 constrained_intra=0 bframes=3 b_pyramid=2 b_adapt=1 b_bias=0 direct=1 weightb=1 open_gop=0 weightp=2 keyint=250 keyint_min=23 scenecut=40 intra_refresh=0 rc_lookahead=40 rc=crf mbtree=1 crf=23.0 qcomp=0.60 qpmin=0 qpmax=69 qpstep=4 ip_ratio=1.40 aq=1:1.00\n","Output #0, mp4, to 'sample_1.mp4':\n","  Metadata:\n","    major_brand     : mp42\n","    minor_version   : 0\n","    compatible_brands: isommp42\n","    encoder         : Lavf57.83.100\n","    Stream #0:0(und): Video: h264 (libx264) (avc1 / 0x31637661), yuv420p, 1280x534 [SAR 1:1 DAR 640:267], q=-1--1, 23.98 fps, 24k tbn, 23.98 tbc (default)\n","    Metadata:\n","      creation_time   : 2019-03-25T04:24:52.000000Z\n","      handler_name    : ISO Media file produced by Google Inc. Created on: 03/24/2019.\n","      encoder         : Lavc57.107.100 libx264\n","    Side data:\n","      cpb: bitrate max/min/avg: 0/0/0 buffer size: 0 vbv_delay: -1\n","    Stream #0:1(und): Audio: aac (LC) (mp4a / 0x6134706D), 44100 Hz, stereo, fltp, 128 kb/s (default)\n","    Metadata:\n","      creation_time   : 2019-03-25T04:24:52.000000Z\n","      handler_name    : ISO Media file produced by Google Inc. Created on: 03/24/2019.\n","      encoder         : Lavc57.107.100 aac\n","frame=  360 fps= 22 q=-1.0 Lsize=     944kB time=00:00:15.00 bitrate= 515.3kbits/s speed=0.904x    \n","video:696kB audio:235kB subtitle:0kB other streams:0kB global headers:0kB muxing overhead: 1.350636%\n","\u001b[1;36m[libx264 @ 0x55613b2ae800] \u001b[0mframe I:2     Avg QP:14.95  size: 19255\n","\u001b[1;36m[libx264 @ 0x55613b2ae800] \u001b[0mframe P:95    Avg QP:18.19  size:  4333\n","\u001b[1;36m[libx264 @ 0x55613b2ae800] \u001b[0mframe B:263   Avg QP:22.25  size:   997\n","\u001b[1;36m[libx264 @ 0x55613b2ae800] \u001b[0mconsecutive B-frames:  0.8%  3.3%  5.8% 90.0%\n","\u001b[1;36m[libx264 @ 0x55613b2ae800] \u001b[0mmb I  I16..4: 29.3% 63.1%  7.7%\n","\u001b[1;36m[libx264 @ 0x55613b2ae800] \u001b[0mmb P  I16..4:  3.0%  6.2%  0.2%  P16..4: 29.6%  5.4%  2.7%  0.0%  0.0%    skip:52.9%\n","\u001b[1;36m[libx264 @ 0x55613b2ae800] \u001b[0mmb B  I16..4:  0.1%  0.2%  0.0%  B16..8: 24.4%  0.5%  0.0%  direct: 0.6%  skip:74.2%  L0:47.8% L1:51.7% BI: 0.5%\n","\u001b[1;36m[libx264 @ 0x55613b2ae800] \u001b[0m8x8 transform intra:65.5% inter:90.0%\n","\u001b[1;36m[libx264 @ 0x55613b2ae800] \u001b[0mcoded y,uvDC,uvAC intra: 18.9% 41.7% 8.0% inter: 2.5% 4.8% 0.0%\n","\u001b[1;36m[libx264 @ 0x55613b2ae800] \u001b[0mi16 v,h,dc,p: 49% 18% 17% 16%\n","\u001b[1;36m[libx264 @ 0x55613b2ae800] \u001b[0mi8 v,h,dc,ddl,ddr,vr,hd,vl,hu: 32% 12% 47%  2%  1%  2%  1%  2%  1%\n","\u001b[1;36m[libx264 @ 0x55613b2ae800] \u001b[0mi4 v,h,dc,ddl,ddr,vr,hd,vl,hu: 45% 16% 25%  3%  3%  3%  2%  2%  1%\n","\u001b[1;36m[libx264 @ 0x55613b2ae800] \u001b[0mi8c dc,h,v,p: 56% 13% 24%  7%\n","\u001b[1;36m[libx264 @ 0x55613b2ae800] \u001b[0mWeighted P-Frames: Y:0.0% UV:0.0%\n","\u001b[1;36m[libx264 @ 0x55613b2ae800] \u001b[0mref P L0: 62.7%  5.2% 23.8%  8.3%\n","\u001b[1;36m[libx264 @ 0x55613b2ae800] \u001b[0mref B L0: 84.6% 12.2%  3.1%\n","\u001b[1;36m[libx264 @ 0x55613b2ae800] \u001b[0mref B L1: 94.2%  5.8%\n","\u001b[1;36m[libx264 @ 0x55613b2ae800] \u001b[0mkb/s:379.52\n","\u001b[1;36m[aac @ 0x55613b2af700] \u001b[0mQavg: 588.935\n","ffmpeg version 3.4.6-0ubuntu0.18.04.1 Copyright (c) 2000-2019 the FFmpeg developers\n","  built with gcc 7 (Ubuntu 7.3.0-16ubuntu3)\n","  configuration: --prefix=/usr --extra-version=0ubuntu0.18.04.1 --toolchain=hardened --libdir=/usr/lib/x86_64-linux-gnu --incdir=/usr/include/x86_64-linux-gnu --enable-gpl --disable-stripping --enable-avresample --enable-avisynth --enable-gnutls --enable-ladspa --enable-libass --enable-libbluray --enable-libbs2b --enable-libcaca --enable-libcdio --enable-libflite --enable-libfontconfig --enable-libfreetype --enable-libfribidi --enable-libgme --enable-libgsm --enable-libmp3lame --enable-libmysofa --enable-libopenjpeg --enable-libopenmpt --enable-libopus --enable-libpulse --enable-librubberband --enable-librsvg --enable-libshine --enable-libsnappy --enable-libsoxr --enable-libspeex --enable-libssh --enable-libtheora --enable-libtwolame --enable-libvorbis --enable-libvpx --enable-libwavpack --enable-libwebp --enable-libx265 --enable-libxml2 --enable-libxvid --enable-libzmq --enable-libzvbi --enable-omx --enable-openal --enable-opengl --enable-sdl2 --enable-libdc1394 --enable-libdrm --enable-libiec61883 --enable-chromaprint --enable-frei0r --enable-libopencv --enable-libx264 --enable-shared\n","  libavutil      55. 78.100 / 55. 78.100\n","  libavcodec     57.107.100 / 57.107.100\n","  libavformat    57. 83.100 / 57. 83.100\n","  libavdevice    57. 10.100 / 57. 10.100\n","  libavfilter     6.107.100 /  6.107.100\n","  libavresample   3.  7.  0 /  3.  7.  0\n","  libswscale      4.  8.100 /  4.  8.100\n","  libswresample   2.  9.100 /  2.  9.100\n","  libpostproc    54.  7.100 / 54.  7.100\n","Input #0, mov,mp4,m4a,3gp,3g2,mj2, from './drive/My Drive/636/data/raw_video_new/2.mp4':\n","  Metadata:\n","    major_brand     : mp42\n","    minor_version   : 0\n","    compatible_brands: isommp42\n","    creation_time   : 2018-09-21T05:07:30.000000Z\n","  Duration: 00:11:40.48, start: 0.000000, bitrate: 648 kb/s\n","    Stream #0:0(und): Video: h264 (Main) (avc1 / 0x31637661), yuv420p(tv, bt709), 1280x720 [SAR 1:1 DAR 16:9], 519 kb/s, 29.97 fps, 29.97 tbr, 90k tbn, 59.94 tbc (default)\n","    Metadata:\n","      creation_time   : 2018-09-21T05:07:30.000000Z\n","      handler_name    : ISO Media file produced by Google Inc. Created on: 09/20/2018.\n","    Stream #0:1(und): Audio: aac (LC) (mp4a / 0x6134706D), 44100 Hz, stereo, fltp, 125 kb/s (default)\n","    Metadata:\n","      creation_time   : 2018-09-21T05:07:30.000000Z\n","      handler_name    : ISO Media file produced by Google Inc. Created on: 09/20/2018.\n","Stream mapping:\n","  Stream #0:0 -> #0:0 (h264 (native) -> h264 (libx264))\n","  Stream #0:1 -> #0:1 (aac (native) -> aac (native))\n","Press [q] to stop, [?] for help\n","\u001b[1;36m[libx264 @ 0x559b0954d200] \u001b[0musing SAR=1/1\n","\u001b[1;36m[libx264 @ 0x559b0954d200] \u001b[0musing cpu capabilities: MMX2 SSE2Fast SSSE3 SSE4.2 AVX FMA3 BMI2 AVX2\n","\u001b[1;36m[libx264 @ 0x559b0954d200] \u001b[0mprofile High, level 3.1\n","\u001b[1;36m[libx264 @ 0x559b0954d200] \u001b[0m264 - core 152 r2854 e9a5903 - H.264/MPEG-4 AVC codec - Copyleft 2003-2017 - http://www.videolan.org/x264.html - options: cabac=1 ref=3 deblock=1:0:0 analyse=0x3:0x113 me=hex subme=7 psy=1 psy_rd=1.00:0.00 mixed_ref=1 me_range=16 chroma_me=1 trellis=1 8x8dct=1 cqm=0 deadzone=21,11 fast_pskip=1 chroma_qp_offset=-2 threads=3 lookahead_threads=1 sliced_threads=0 nr=0 decimate=1 interlaced=0 bluray_compat=0 constrained_intra=0 bframes=3 b_pyramid=2 b_adapt=1 b_bias=0 direct=1 weightb=1 open_gop=0 weightp=2 keyint=250 keyint_min=25 scenecut=40 intra_refresh=0 rc_lookahead=40 rc=crf mbtree=1 crf=23.0 qcomp=0.60 qpmin=0 qpmax=69 qpstep=4 ip_ratio=1.40 aq=1:1.00\n","Output #0, mp4, to 'sample_2.mp4':\n","  Metadata:\n","    major_brand     : mp42\n","    minor_version   : 0\n","    compatible_brands: isommp42\n","    encoder         : Lavf57.83.100\n","    Stream #0:0(und): Video: h264 (libx264) (avc1 / 0x31637661), yuv420p, 1280x720 [SAR 1:1 DAR 16:9], q=-1--1, 29.97 fps, 30k tbn, 29.97 tbc (default)\n","    Metadata:\n","      creation_time   : 2018-09-21T05:07:30.000000Z\n","      handler_name    : ISO Media file produced by Google Inc. Created on: 09/20/2018.\n","      encoder         : Lavc57.107.100 libx264\n","    Side data:\n","      cpb: bitrate max/min/avg: 0/0/0 buffer size: 0 vbv_delay: -1\n","    Stream #0:1(und): Audio: aac (LC) (mp4a / 0x6134706D), 44100 Hz, stereo, fltp, 128 kb/s (default)\n","    Metadata:\n","      creation_time   : 2018-09-21T05:07:30.000000Z\n","      handler_name    : ISO Media file produced by Google Inc. Created on: 09/20/2018.\n","      encoder         : Lavc57.107.100 aac\n","frame=  450 fps=9.1 q=-1.0 Lsize=    1636kB time=00:00:15.00 bitrate= 893.7kbits/s dup=1 drop=0 speed=0.303x    \n","video:1375kB audio:244kB subtitle:0kB other streams:0kB global headers:0kB muxing overhead: 1.029562%\n","\u001b[1;36m[libx264 @ 0x559b0954d200] \u001b[0mframe I:4     Avg QP:16.79  size: 21795\n","\u001b[1;36m[libx264 @ 0x559b0954d200] \u001b[0mframe P:169   Avg QP:20.42  size:  5446\n","\u001b[1;36m[libx264 @ 0x559b0954d200] \u001b[0mframe B:277   Avg QP:20.88  size:  1445\n","\u001b[1;36m[libx264 @ 0x559b0954d200] \u001b[0mconsecutive B-frames:  5.8% 20.9% 46.7% 26.7%\n","\u001b[1;36m[libx264 @ 0x559b0954d200] \u001b[0mmb I  I16..4: 34.2% 54.7% 11.1%\n","\u001b[1;36m[libx264 @ 0x559b0954d200] \u001b[0mmb P  I16..4:  5.4%  9.8%  0.4%  P16..4: 27.1%  4.4%  1.0%  0.0%  0.0%    skip:51.9%\n","\u001b[1;36m[libx264 @ 0x559b0954d200] \u001b[0mmb B  I16..4:  0.5%  0.6%  0.0%  B16..8: 20.9%  1.0%  0.1%  direct: 0.4%  skip:76.6%  L0:47.3% L1:51.4% BI: 1.3%\n","\u001b[1;36m[libx264 @ 0x559b0954d200] \u001b[0m8x8 transform intra:61.1% inter:88.6%\n","\u001b[1;36m[libx264 @ 0x559b0954d200] \u001b[0mcoded y,uvDC,uvAC intra: 19.3% 23.9% 1.8% inter: 2.6% 2.8% 0.0%\n","\u001b[1;36m[libx264 @ 0x559b0954d200] \u001b[0mi16 v,h,dc,p: 29% 32%  9% 30%\n","\u001b[1;36m[libx264 @ 0x559b0954d200] \u001b[0mi8 v,h,dc,ddl,ddr,vr,hd,vl,hu: 36% 21% 29%  2%  2%  3%  2%  3%  2%\n","\u001b[1;36m[libx264 @ 0x559b0954d200] \u001b[0mi4 v,h,dc,ddl,ddr,vr,hd,vl,hu: 30% 23% 20%  3%  6%  7%  5%  4%  2%\n","\u001b[1;36m[libx264 @ 0x559b0954d200] \u001b[0mi8c dc,h,v,p: 66% 18% 14%  2%\n","\u001b[1;36m[libx264 @ 0x559b0954d200] \u001b[0mWeighted P-Frames: Y:0.0% UV:0.0%\n","\u001b[1;36m[libx264 @ 0x559b0954d200] \u001b[0mref P L0: 72.7% 11.4% 11.6%  4.3%\n","\u001b[1;36m[libx264 @ 0x559b0954d200] \u001b[0mref B L0: 88.4%  9.9%  1.7%\n","\u001b[1;36m[libx264 @ 0x559b0954d200] \u001b[0mref B L1: 99.2%  0.8%\n","\u001b[1;36m[libx264 @ 0x559b0954d200] \u001b[0mkb/s:749.98\n","\u001b[1;36m[aac @ 0x559b096fa500] \u001b[0mQavg: 638.228\n","ffmpeg version 3.4.6-0ubuntu0.18.04.1 Copyright (c) 2000-2019 the FFmpeg developers\n","  built with gcc 7 (Ubuntu 7.3.0-16ubuntu3)\n","  configuration: --prefix=/usr --extra-version=0ubuntu0.18.04.1 --toolchain=hardened --libdir=/usr/lib/x86_64-linux-gnu --incdir=/usr/include/x86_64-linux-gnu --enable-gpl --disable-stripping --enable-avresample --enable-avisynth --enable-gnutls --enable-ladspa --enable-libass --enable-libbluray --enable-libbs2b --enable-libcaca --enable-libcdio --enable-libflite --enable-libfontconfig --enable-libfreetype --enable-libfribidi --enable-libgme --enable-libgsm --enable-libmp3lame --enable-libmysofa --enable-libopenjpeg --enable-libopenmpt --enable-libopus --enable-libpulse --enable-librubberband --enable-librsvg --enable-libshine --enable-libsnappy --enable-libsoxr --enable-libspeex --enable-libssh --enable-libtheora --enable-libtwolame --enable-libvorbis --enable-libvpx --enable-libwavpack --enable-libwebp --enable-libx265 --enable-libxml2 --enable-libxvid --enable-libzmq --enable-libzvbi --enable-omx --enable-openal --enable-opengl --enable-sdl2 --enable-libdc1394 --enable-libdrm --enable-libiec61883 --enable-chromaprint --enable-frei0r --enable-libopencv --enable-libx264 --enable-shared\n","  libavutil      55. 78.100 / 55. 78.100\n","  libavcodec     57.107.100 / 57.107.100\n","  libavformat    57. 83.100 / 57. 83.100\n","  libavdevice    57. 10.100 / 57. 10.100\n","  libavfilter     6.107.100 /  6.107.100\n","  libavresample   3.  7.  0 /  3.  7.  0\n","  libswscale      4.  8.100 /  4.  8.100\n","  libswresample   2.  9.100 /  2.  9.100\n","  libpostproc    54.  7.100 / 54.  7.100\n","Input #0, mov,mp4,m4a,3gp,3g2,mj2, from './drive/My Drive/636/data/raw_video_new/2.mp4':\n","  Metadata:\n","    major_brand     : mp42\n","    minor_version   : 0\n","    compatible_brands: isommp42\n","    creation_time   : 2018-09-21T05:07:30.000000Z\n","  Duration: 00:11:40.48, start: 0.000000, bitrate: 648 kb/s\n","    Stream #0:0(und): Video: h264 (Main) (avc1 / 0x31637661), yuv420p(tv, bt709), 1280x720 [SAR 1:1 DAR 16:9], 519 kb/s, 29.97 fps, 29.97 tbr, 90k tbn, 59.94 tbc (default)\n","    Metadata:\n","      creation_time   : 2018-09-21T05:07:30.000000Z\n","      handler_name    : ISO Media file produced by Google Inc. Created on: 09/20/2018.\n","    Stream #0:1(und): Audio: aac (LC) (mp4a / 0x6134706D), 44100 Hz, stereo, fltp, 125 kb/s (default)\n","    Metadata:\n","      creation_time   : 2018-09-21T05:07:30.000000Z\n","      handler_name    : ISO Media file produced by Google Inc. Created on: 09/20/2018.\n","Stream mapping:\n","  Stream #0:0 -> #0:0 (h264 (native) -> h264 (libx264))\n","  Stream #0:1 -> #0:1 (aac (native) -> aac (native))\n","Press [q] to stop, [?] for help\n","\u001b[1;36m[libx264 @ 0x5611ab0ef200] \u001b[0musing SAR=1/1\n","\u001b[1;36m[libx264 @ 0x5611ab0ef200] \u001b[0musing cpu capabilities: MMX2 SSE2Fast SSSE3 SSE4.2 AVX FMA3 BMI2 AVX2\n","\u001b[1;36m[libx264 @ 0x5611ab0ef200] \u001b[0mprofile High, level 3.1\n","\u001b[1;36m[libx264 @ 0x5611ab0ef200] \u001b[0m264 - core 152 r2854 e9a5903 - H.264/MPEG-4 AVC codec - Copyleft 2003-2017 - http://www.videolan.org/x264.html - options: cabac=1 ref=3 deblock=1:0:0 analyse=0x3:0x113 me=hex subme=7 psy=1 psy_rd=1.00:0.00 mixed_ref=1 me_range=16 chroma_me=1 trellis=1 8x8dct=1 cqm=0 deadzone=21,11 fast_pskip=1 chroma_qp_offset=-2 threads=3 lookahead_threads=1 sliced_threads=0 nr=0 decimate=1 interlaced=0 bluray_compat=0 constrained_intra=0 bframes=3 b_pyramid=2 b_adapt=1 b_bias=0 direct=1 weightb=1 open_gop=0 weightp=2 keyint=250 keyint_min=25 scenecut=40 intra_refresh=0 rc_lookahead=40 rc=crf mbtree=1 crf=23.0 qcomp=0.60 qpmin=0 qpmax=69 qpstep=4 ip_ratio=1.40 aq=1:1.00\n","Output #0, mp4, to 'sample_3.mp4':\n","  Metadata:\n","    major_brand     : mp42\n","    minor_version   : 0\n","    compatible_brands: isommp42\n","    encoder         : Lavf57.83.100\n","    Stream #0:0(und): Video: h264 (libx264) (avc1 / 0x31637661), yuv420p, 1280x720 [SAR 1:1 DAR 16:9], q=-1--1, 29.97 fps, 30k tbn, 29.97 tbc (default)\n","    Metadata:\n","      creation_time   : 2018-09-21T05:07:30.000000Z\n","      handler_name    : ISO Media file produced by Google Inc. Created on: 09/20/2018.\n","      encoder         : Lavc57.107.100 libx264\n","    Side data:\n","      cpb: bitrate max/min/avg: 0/0/0 buffer size: 0 vbv_delay: -1\n","    Stream #0:1(und): Audio: aac (LC) (mp4a / 0x6134706D), 44100 Hz, stereo, fltp, 128 kb/s (default)\n","    Metadata:\n","      creation_time   : 2018-09-21T05:07:30.000000Z\n","      handler_name    : ISO Media file produced by Google Inc. Created on: 09/20/2018.\n","      encoder         : Lavc57.107.100 aac\n","frame=  450 fps= 21 q=-1.0 Lsize=    1309kB time=00:00:15.00 bitrate= 715.1kbits/s speed=0.698x    \n","video:1046kB audio:246kB subtitle:0kB other streams:0kB global headers:0kB muxing overhead: 1.298269%\n","\u001b[1;36m[libx264 @ 0x5611ab0ef200] \u001b[0mframe I:3     Avg QP:15.40  size: 23405\n","\u001b[1;36m[libx264 @ 0x5611ab0ef200] \u001b[0mframe P:158   Avg QP:19.27  size:  4450\n","\u001b[1;36m[libx264 @ 0x5611ab0ef200] \u001b[0mframe B:289   Avg QP:19.11  size:  1029\n","\u001b[1;36m[libx264 @ 0x5611ab0ef200] \u001b[0mconsecutive B-frames:  3.3% 19.1% 42.0% 35.6%\n","\u001b[1;36m[libx264 @ 0x5611ab0ef200] \u001b[0mmb I  I16..4: 39.5% 49.6% 10.9%\n","\u001b[1;36m[libx264 @ 0x5611ab0ef200] \u001b[0mmb P  I16..4:  5.2%  8.8%  0.2%  P16..4: 23.6%  2.9%  0.8%  0.0%  0.0%    skip:58.5%\n","\u001b[1;36m[libx264 @ 0x5611ab0ef200] \u001b[0mmb B  I16..4:  0.3%  0.3%  0.0%  B16..8: 16.6%  0.5%  0.0%  direct: 0.6%  skip:81.8%  L0:41.1% L1:57.9% BI: 1.0%\n","\u001b[1;36m[libx264 @ 0x5611ab0ef200] \u001b[0m8x8 transform intra:59.8% inter:93.0%\n","\u001b[1;36m[libx264 @ 0x5611ab0ef200] \u001b[0mcoded y,uvDC,uvAC intra: 15.5% 38.3% 6.5% inter: 1.4% 3.8% 0.0%\n","\u001b[1;36m[libx264 @ 0x5611ab0ef200] \u001b[0mi16 v,h,dc,p: 27% 29% 11% 33%\n","\u001b[1;36m[libx264 @ 0x5611ab0ef200] \u001b[0mi8 v,h,dc,ddl,ddr,vr,hd,vl,hu: 29% 19% 41%  2%  2%  2%  2%  2%  2%\n","\u001b[1;36m[libx264 @ 0x5611ab0ef200] \u001b[0mi4 v,h,dc,ddl,ddr,vr,hd,vl,hu: 28% 24% 20%  4%  6%  5%  5%  4%  3%\n","\u001b[1;36m[libx264 @ 0x5611ab0ef200] \u001b[0mi8c dc,h,v,p: 51% 23% 18%  9%\n","\u001b[1;36m[libx264 @ 0x5611ab0ef200] \u001b[0mWeighted P-Frames: Y:0.0% UV:0.0%\n","\u001b[1;36m[libx264 @ 0x5611ab0ef200] \u001b[0mref P L0: 74.8%  7.3% 13.1%  4.8%\n","\u001b[1;36m[libx264 @ 0x5611ab0ef200] \u001b[0mref B L0: 87.5% 10.8%  1.7%\n","\u001b[1;36m[libx264 @ 0x5611ab0ef200] \u001b[0mref B L1: 98.8%  1.2%\n","\u001b[1;36m[libx264 @ 0x5611ab0ef200] \u001b[0mkb/s:570.49\n","\u001b[1;36m[aac @ 0x5611ab29c500] \u001b[0mQavg: 520.077\n","ffmpeg version 3.4.6-0ubuntu0.18.04.1 Copyright (c) 2000-2019 the FFmpeg developers\n","  built with gcc 7 (Ubuntu 7.3.0-16ubuntu3)\n","  configuration: --prefix=/usr --extra-version=0ubuntu0.18.04.1 --toolchain=hardened --libdir=/usr/lib/x86_64-linux-gnu --incdir=/usr/include/x86_64-linux-gnu --enable-gpl --disable-stripping --enable-avresample --enable-avisynth --enable-gnutls --enable-ladspa --enable-libass --enable-libbluray --enable-libbs2b --enable-libcaca --enable-libcdio --enable-libflite --enable-libfontconfig --enable-libfreetype --enable-libfribidi --enable-libgme --enable-libgsm --enable-libmp3lame --enable-libmysofa --enable-libopenjpeg --enable-libopenmpt --enable-libopus --enable-libpulse --enable-librubberband --enable-librsvg --enable-libshine --enable-libsnappy --enable-libsoxr --enable-libspeex --enable-libssh --enable-libtheora --enable-libtwolame --enable-libvorbis --enable-libvpx --enable-libwavpack --enable-libwebp --enable-libx265 --enable-libxml2 --enable-libxvid --enable-libzmq --enable-libzvbi --enable-omx --enable-openal --enable-opengl --enable-sdl2 --enable-libdc1394 --enable-libdrm --enable-libiec61883 --enable-chromaprint --enable-frei0r --enable-libopencv --enable-libx264 --enable-shared\n","  libavutil      55. 78.100 / 55. 78.100\n","  libavcodec     57.107.100 / 57.107.100\n","  libavformat    57. 83.100 / 57. 83.100\n","  libavdevice    57. 10.100 / 57. 10.100\n","  libavfilter     6.107.100 /  6.107.100\n","  libavresample   3.  7.  0 /  3.  7.  0\n","  libswscale      4.  8.100 /  4.  8.100\n","  libswresample   2.  9.100 /  2.  9.100\n","  libpostproc    54.  7.100 / 54.  7.100\n","Input #0, mov,mp4,m4a,3gp,3g2,mj2, from './drive/My Drive/636/data/raw_video_new/3.mp4':\n","  Metadata:\n","    major_brand     : mp42\n","    minor_version   : 0\n","    compatible_brands: isommp42\n","    creation_time   : 2018-10-21T11:52:01.000000Z\n","  Duration: 00:13:47.77, start: 0.000000, bitrate: 832 kb/s\n","    Stream #0:0(und): Video: h264 (Main) (avc1 / 0x31637661), yuv420p(tv, bt709), 1280x720 [SAR 1:1 DAR 16:9], 702 kb/s, 29.97 fps, 29.97 tbr, 90k tbn, 59.94 tbc (default)\n","    Metadata:\n","      creation_time   : 2018-10-21T11:52:01.000000Z\n","      handler_name    : ISO Media file produced by Google Inc. Created on: 10/21/2018.\n","    Stream #0:1(und): Audio: aac (LC) (mp4a / 0x6134706D), 44100 Hz, stereo, fltp, 125 kb/s (default)\n","    Metadata:\n","      creation_time   : 2018-10-21T11:52:01.000000Z\n","      handler_name    : ISO Media file produced by Google Inc. Created on: 10/21/2018.\n","Stream mapping:\n","  Stream #0:0 -> #0:0 (h264 (native) -> h264 (libx264))\n","  Stream #0:1 -> #0:1 (aac (native) -> aac (native))\n","Press [q] to stop, [?] for help\n","\u001b[1;36m[libx264 @ 0x5654c25d4d00] \u001b[0musing SAR=1/1\n","\u001b[1;36m[libx264 @ 0x5654c25d4d00] \u001b[0musing cpu capabilities: MMX2 SSE2Fast SSSE3 SSE4.2 AVX FMA3 BMI2 AVX2\n","\u001b[1;36m[libx264 @ 0x5654c25d4d00] \u001b[0mprofile High, level 3.1\n","\u001b[1;36m[libx264 @ 0x5654c25d4d00] \u001b[0m264 - core 152 r2854 e9a5903 - H.264/MPEG-4 AVC codec - Copyleft 2003-2017 - http://www.videolan.org/x264.html - options: cabac=1 ref=3 deblock=1:0:0 analyse=0x3:0x113 me=hex subme=7 psy=1 psy_rd=1.00:0.00 mixed_ref=1 me_range=16 chroma_me=1 trellis=1 8x8dct=1 cqm=0 deadzone=21,11 fast_pskip=1 chroma_qp_offset=-2 threads=3 lookahead_threads=1 sliced_threads=0 nr=0 decimate=1 interlaced=0 bluray_compat=0 constrained_intra=0 bframes=3 b_pyramid=2 b_adapt=1 b_bias=0 direct=1 weightb=1 open_gop=0 weightp=2 keyint=250 keyint_min=25 scenecut=40 intra_refresh=0 rc_lookahead=40 rc=crf mbtree=1 crf=23.0 qcomp=0.60 qpmin=0 qpmax=69 qpstep=4 ip_ratio=1.40 aq=1:1.00\n","Output #0, mp4, to 'sample_4.mp4':\n","  Metadata:\n","    major_brand     : mp42\n","    minor_version   : 0\n","    compatible_brands: isommp42\n","    encoder         : Lavf57.83.100\n","    Stream #0:0(und): Video: h264 (libx264) (avc1 / 0x31637661), yuv420p, 1280x720 [SAR 1:1 DAR 16:9], q=-1--1, 29.97 fps, 30k tbn, 29.97 tbc (default)\n","    Metadata:\n","      creation_time   : 2018-10-21T11:52:01.000000Z\n","      handler_name    : ISO Media file produced by Google Inc. Created on: 10/21/2018.\n","      encoder         : Lavc57.107.100 libx264\n","    Side data:\n","      cpb: bitrate max/min/avg: 0/0/0 buffer size: 0 vbv_delay: -1\n","    Stream #0:1(und): Audio: aac (LC) (mp4a / 0x6134706D), 44100 Hz, stereo, fltp, 128 kb/s (default)\n","    Metadata:\n","      creation_time   : 2018-10-21T11:52:01.000000Z\n","      handler_name    : ISO Media file produced by Google Inc. Created on: 10/21/2018.\n","      encoder         : Lavc57.107.100 aac\n","frame=  450 fps= 23 q=-1.0 Lsize=    1809kB time=00:00:15.00 bitrate= 988.2kbits/s dup=1 drop=0 speed=0.752x    \n","video:1551kB audio:242kB subtitle:0kB other streams:0kB global headers:0kB muxing overhead: 0.946234%\n","\u001b[1;36m[libx264 @ 0x5654c25d4d00] \u001b[0mframe I:4     Avg QP:16.67  size: 36185\n","\u001b[1;36m[libx264 @ 0x5654c25d4d00] \u001b[0mframe P:161   Avg QP:20.60  size:  6447\n","\u001b[1;36m[libx264 @ 0x5654c25d4d00] \u001b[0mframe B:285   Avg QP:22.55  size:  1420\n","\u001b[1;36m[libx264 @ 0x5654c25d4d00] \u001b[0mconsecutive B-frames:  3.1% 28.9% 25.3% 42.7%\n","\u001b[1;36m[libx264 @ 0x5654c25d4d00] \u001b[0mmb I  I16..4: 31.7% 47.6% 20.7%\n","\u001b[1;36m[libx264 @ 0x5654c25d4d00] \u001b[0mmb P  I16..4:  2.5%  5.7%  0.5%  P16..4: 28.2%  6.4%  2.4%  0.0%  0.0%    skip:54.4%\n","\u001b[1;36m[libx264 @ 0x5654c25d4d00] \u001b[0mmb B  I16..4:  0.1%  0.2%  0.0%  B16..8: 20.5%  1.3%  0.1%  direct: 0.6%  skip:77.1%  L0:43.0% L1:54.2% BI: 2.8%\n","\u001b[1;36m[libx264 @ 0x5654c25d4d00] \u001b[0m8x8 transform intra:61.6% inter:74.9%\n","\u001b[1;36m[libx264 @ 0x5654c25d4d00] \u001b[0mcoded y,uvDC,uvAC intra: 28.3% 33.2% 7.0% inter: 3.2% 3.6% 0.1%\n","\u001b[1;36m[libx264 @ 0x5654c25d4d00] \u001b[0mi16 v,h,dc,p: 38% 26% 11% 25%\n","\u001b[1;36m[libx264 @ 0x5654c25d4d00] \u001b[0mi8 v,h,dc,ddl,ddr,vr,hd,vl,hu: 27% 17% 38%  3%  3%  3%  3%  3%  3%\n","\u001b[1;36m[libx264 @ 0x5654c25d4d00] \u001b[0mi4 v,h,dc,ddl,ddr,vr,hd,vl,hu: 30% 21% 14%  5%  6%  7%  6%  6%  4%\n","\u001b[1;36m[libx264 @ 0x5654c25d4d00] \u001b[0mi8c dc,h,v,p: 55% 19% 21%  5%\n","\u001b[1;36m[libx264 @ 0x5654c25d4d00] \u001b[0mWeighted P-Frames: Y:0.0% UV:0.0%\n","\u001b[1;36m[libx264 @ 0x5654c25d4d00] \u001b[0mref P L0: 70.3% 12.3% 13.1%  4.3%\n","\u001b[1;36m[libx264 @ 0x5654c25d4d00] \u001b[0mref B L0: 89.5%  9.1%  1.4%\n","\u001b[1;36m[libx264 @ 0x5654c25d4d00] \u001b[0mref B L1: 98.8%  1.2%\n","\u001b[1;36m[libx264 @ 0x5654c25d4d00] \u001b[0mkb/s:845.70\n","\u001b[1;36m[aac @ 0x5654c2606000] \u001b[0mQavg: 768.769\n","ffmpeg version 3.4.6-0ubuntu0.18.04.1 Copyright (c) 2000-2019 the FFmpeg developers\n","  built with gcc 7 (Ubuntu 7.3.0-16ubuntu3)\n","  configuration: --prefix=/usr --extra-version=0ubuntu0.18.04.1 --toolchain=hardened --libdir=/usr/lib/x86_64-linux-gnu --incdir=/usr/include/x86_64-linux-gnu --enable-gpl --disable-stripping --enable-avresample --enable-avisynth --enable-gnutls --enable-ladspa --enable-libass --enable-libbluray --enable-libbs2b --enable-libcaca --enable-libcdio --enable-libflite --enable-libfontconfig --enable-libfreetype --enable-libfribidi --enable-libgme --enable-libgsm --enable-libmp3lame --enable-libmysofa --enable-libopenjpeg --enable-libopenmpt --enable-libopus --enable-libpulse --enable-librubberband --enable-librsvg --enable-libshine --enable-libsnappy --enable-libsoxr --enable-libspeex --enable-libssh --enable-libtheora --enable-libtwolame --enable-libvorbis --enable-libvpx --enable-libwavpack --enable-libwebp --enable-libx265 --enable-libxml2 --enable-libxvid --enable-libzmq --enable-libzvbi --enable-omx --enable-openal --enable-opengl --enable-sdl2 --enable-libdc1394 --enable-libdrm --enable-libiec61883 --enable-chromaprint --enable-frei0r --enable-libopencv --enable-libx264 --enable-shared\n","  libavutil      55. 78.100 / 55. 78.100\n","  libavcodec     57.107.100 / 57.107.100\n","  libavformat    57. 83.100 / 57. 83.100\n","  libavdevice    57. 10.100 / 57. 10.100\n","  libavfilter     6.107.100 /  6.107.100\n","  libavresample   3.  7.  0 /  3.  7.  0\n","  libswscale      4.  8.100 /  4.  8.100\n","  libswresample   2.  9.100 /  2.  9.100\n","  libpostproc    54.  7.100 / 54.  7.100\n","Input #0, mov,mp4,m4a,3gp,3g2,mj2, from './drive/My Drive/636/data/raw_video_new/4.mp4':\n","  Metadata:\n","    major_brand     : mp42\n","    minor_version   : 0\n","    compatible_brands: isommp42\n","    creation_time   : 2018-12-07T21:26:03.000000Z\n","  Duration: 00:11:44.89, start: 0.000000, bitrate: 850 kb/s\n","    Stream #0:0(und): Video: h264 (Main) (avc1 / 0x31637661), yuv420p(tv, bt709), 1280x720 [SAR 1:1 DAR 16:9], 718 kb/s, 29.97 fps, 29.97 tbr, 30k tbn, 59.94 tbc (default)\n","    Metadata:\n","      creation_time   : 2018-12-07T21:26:03.000000Z\n","      handler_name    : ISO Media file produced by Google Inc. Created on: 12/07/2018.\n","    Stream #0:1(eng): Audio: aac (LC) (mp4a / 0x6134706D), 44100 Hz, stereo, fltp, 128 kb/s (default)\n","    Metadata:\n","      creation_time   : 2018-12-07T21:26:03.000000Z\n","      handler_name    : ISO Media file produced by Google Inc. Created on: 12/07/2018.\n","Stream mapping:\n","  Stream #0:0 -> #0:0 (h264 (native) -> h264 (libx264))\n","  Stream #0:1 -> #0:1 (aac (native) -> aac (native))\n","Press [q] to stop, [?] for help\n","\u001b[1;36m[libx264 @ 0x5581abc26800] \u001b[0musing SAR=1/1\n","\u001b[1;36m[libx264 @ 0x5581abc26800] \u001b[0musing cpu capabilities: MMX2 SSE2Fast SSSE3 SSE4.2 AVX FMA3 BMI2 AVX2\n","\u001b[1;36m[libx264 @ 0x5581abc26800] \u001b[0mprofile High, level 3.1\n","\u001b[1;36m[libx264 @ 0x5581abc26800] \u001b[0m264 - core 152 r2854 e9a5903 - H.264/MPEG-4 AVC codec - Copyleft 2003-2017 - http://www.videolan.org/x264.html - options: cabac=1 ref=3 deblock=1:0:0 analyse=0x3:0x113 me=hex subme=7 psy=1 psy_rd=1.00:0.00 mixed_ref=1 me_range=16 chroma_me=1 trellis=1 8x8dct=1 cqm=0 deadzone=21,11 fast_pskip=1 chroma_qp_offset=-2 threads=3 lookahead_threads=1 sliced_threads=0 nr=0 decimate=1 interlaced=0 bluray_compat=0 constrained_intra=0 bframes=3 b_pyramid=2 b_adapt=1 b_bias=0 direct=1 weightb=1 open_gop=0 weightp=2 keyint=250 keyint_min=25 scenecut=40 intra_refresh=0 rc_lookahead=40 rc=crf mbtree=1 crf=23.0 qcomp=0.60 qpmin=0 qpmax=69 qpstep=4 ip_ratio=1.40 aq=1:1.00\n","Output #0, mp4, to 'sample_5.mp4':\n","  Metadata:\n","    major_brand     : mp42\n","    minor_version   : 0\n","    compatible_brands: isommp42\n","    encoder         : Lavf57.83.100\n","    Stream #0:0(und): Video: h264 (libx264) (avc1 / 0x31637661), yuv420p, 1280x720 [SAR 1:1 DAR 16:9], q=-1--1, 29.97 fps, 30k tbn, 29.97 tbc (default)\n","    Metadata:\n","      creation_time   : 2018-12-07T21:26:03.000000Z\n","      handler_name    : ISO Media file produced by Google Inc. Created on: 12/07/2018.\n","      encoder         : Lavc57.107.100 libx264\n","    Side data:\n","      cpb: bitrate max/min/avg: 0/0/0 buffer size: 0 vbv_delay: -1\n","    Stream #0:1(eng): Audio: aac (LC) (mp4a / 0x6134706D), 44100 Hz, stereo, fltp, 128 kb/s (default)\n","    Metadata:\n","      creation_time   : 2018-12-07T21:26:03.000000Z\n","      handler_name    : ISO Media file produced by Google Inc. Created on: 12/07/2018.\n","      encoder         : Lavc57.107.100 aac\n","frame=  450 fps= 17 q=-1.0 Lsize=    1729kB time=00:00:15.00 bitrate= 944.3kbits/s dup=1 drop=0 speed=0.569x    \n","video:1477kB audio:235kB subtitle:0kB other streams:0kB global headers:0kB muxing overhead: 0.993602%\n","\u001b[1;36m[libx264 @ 0x5581abc26800] \u001b[0mframe I:2     Avg QP:17.66  size: 40312\n","\u001b[1;36m[libx264 @ 0x5581abc26800] \u001b[0mframe P:144   Avg QP:21.63  size:  7245\n","\u001b[1;36m[libx264 @ 0x5581abc26800] \u001b[0mframe B:304   Avg QP:23.37  size:  1276\n","\u001b[1;36m[libx264 @ 0x5581abc26800] \u001b[0mconsecutive B-frames:  1.3% 18.2% 22.7% 57.8%\n","\u001b[1;36m[libx264 @ 0x5581abc26800] \u001b[0mmb I  I16..4: 19.1% 61.0% 19.9%\n","\u001b[1;36m[libx264 @ 0x5581abc26800] \u001b[0mmb P  I16..4:  1.8%  3.6%  0.5%  P16..4: 28.0%  7.9%  3.0%  0.0%  0.0%    skip:55.2%\n","\u001b[1;36m[libx264 @ 0x5581abc26800] \u001b[0mmb B  I16..4:  0.2%  0.1%  0.0%  B16..8: 22.2%  0.8%  0.1%  direct: 0.5%  skip:76.1%  L0:38.5% L1:59.2% BI: 2.2%\n","\u001b[1;36m[libx264 @ 0x5581abc26800] \u001b[0m8x8 transform intra:58.2% inter:61.1%\n","\u001b[1;36m[libx264 @ 0x5581abc26800] \u001b[0mcoded y,uvDC,uvAC intra: 29.3% 18.9% 3.0% inter: 3.9% 1.6% 0.0%\n","\u001b[1;36m[libx264 @ 0x5581abc26800] \u001b[0mi16 v,h,dc,p: 36% 37%  8% 18%\n","\u001b[1;36m[libx264 @ 0x5581abc26800] \u001b[0mi8 v,h,dc,ddl,ddr,vr,hd,vl,hu: 30% 15% 38%  2%  3%  4%  3%  3%  2%\n","\u001b[1;36m[libx264 @ 0x5581abc26800] \u001b[0mi4 v,h,dc,ddl,ddr,vr,hd,vl,hu: 35% 19% 14%  3%  8%  9%  5%  4%  3%\n","\u001b[1;36m[libx264 @ 0x5581abc26800] \u001b[0mi8c dc,h,v,p: 69% 15% 14%  2%\n","\u001b[1;36m[libx264 @ 0x5581abc26800] \u001b[0mWeighted P-Frames: Y:0.7% UV:0.0%\n","\u001b[1;36m[libx264 @ 0x5581abc26800] \u001b[0mref P L0: 67.8% 15.4% 12.9%  3.9%  0.1%\n","\u001b[1;36m[libx264 @ 0x5581abc26800] \u001b[0mref B L0: 87.2% 10.8%  2.0%\n","\u001b[1;36m[libx264 @ 0x5581abc26800] \u001b[0mref B L1: 97.3%  2.7%\n","\u001b[1;36m[libx264 @ 0x5581abc26800] \u001b[0mkb/s:805.54\n","\u001b[1;36m[aac @ 0x5581abc27700] \u001b[0mQavg: 489.808\n"],"name":"stdout"}]},{"cell_type":"markdown","metadata":{"id":"8oo0QxQuYLoC","colab_type":"text"},"source":["Uplaod sample video"]},{"cell_type":"code","metadata":{"id":"3LMvrp7WZJGX","colab_type":"code","colab":{"base_uri":"https://localhost:8080/","height":34},"outputId":"1e8cdee1-c8d7-453a-97e1-0e840eb4a522","executionInfo":{"status":"ok","timestamp":1585000526091,"user_tz":300,"elapsed":1787,"user":{"displayName":"Yiran Huang","photoUrl":"","userId":"05736232613090018980"}}},"source":["!pwd"],"execution_count":14,"outputs":[{"output_type":"stream","text":["/content\n"],"name":"stdout"}]},{"cell_type":"code","metadata":{"id":"ZTc7MsKKIPTS","colab_type":"code","colab":{"base_uri":"https://localhost:8080/","height":34},"outputId":"c34f3ee8-f86a-45b1-95ed-42c67361b7a7","executionInfo":{"status":"ok","timestamp":1585000566609,"user_tz":300,"elapsed":2180,"user":{"displayName":"Yiran Huang","photoUrl":"","userId":"05736232613090018980"}}},"source":["for i in range(1, 6):\n","  filename = 'sample_' + str(i) + '.mp4'\n","  upload(filename)"],"execution_count":17,"outputs":[{"output_type":"stream","text":["Uploaded file with ID 19rS08J3Hd0eMt_ROjeH2PA3neiGEiUFr\n"],"name":"stdout"}]}]}